#!OML:ASF E:\motion texture\Top Level 1\Subject 1\Session 1\male.ASF
:FULLY-SPECIFIED
:DEGREES
238
root -3.10955 17.8867 4.79435 160.123 -88.2301 -156.629
lowerback -0.949212 0.860452 1.48056
upperback -3.25025 1.14425 2.31993
thorax -2.82363 0.537512 1.53834
lowerneck -9.87465 -7.34255 -7.479
upperneck 17.0538 -10.709 8.536
head 7.74278 -4.97955 2.92606
rclavicle 3.8266e-015 2.54444e-014
rhumerus 31.6111 -3.85956 -79.9662
rradius 72.1838
rwrist 1.14525
rhand -37.6266 -47.5978
rfingers 7.12502
rthumb -10.6791 -437.306
lclavicle 3.8266e-015 2.54444e-014
lhumerus 22.7577 36.6577 84.6304
lradius 72.2536
lwrist 26.7915
lhand -36.8322 46.0296
lfingers 7.12502
lthumb -9.91273 75.7762
rfemur -23.1057 -6.13538 19.5486
rtibia 68.265
rfoot 2.082 -15.9589
rtoes 10.306
lfemur -13.9417 -3.33813 -22.6468
ltibia 23.5934
lfoot -10.2099 2.27901
ltoes 0.61927
239
root -3.24869 17.9036 4.79754 165.321 -88.1198 -161.764
lowerback -1.02136 0.823582 1.42107
upperback -3.2441 1.09222 2.36346
thorax -2.77781 0.513404 1.61828
lowerneck -10.1551 -6.93812 -7.14277
upperneck 17.2303 -10.1651 8.36025
head 7.77573 -4.70368 2.86878
rclavicle -1.2921e-015 -2.70347e-014
rhumerus 31.1662 -0.177483 -77.3035
rradius 73.1683
rwrist 1.38937
rhand -36.5315 -44.9411
rfingers 7.12502
rthumb -9.62268 -434.701
lclavicle -1.2921e-015 -2.70347e-014
lhumerus 20.3997 33.3723 81.5339
lradius 70.9906
lwrist 23.4
lhand -36.2807 45.8899
lfingers 7.12502
lthumb -9.38064 75.6612
rfemur -24.1847 -5.90265 19.4139
rtibia 67.8314
rfoot 0.936735 -15.7675
rtoes 9.61366
lfemur -13.1691 -3.3438 -22.8425
ltibia 23.0463
lfoot -10.4111 2.45365
ltoes 0.571068
240
root -3.38712 17.9196 4.8009 169.486 -87.996 -165.879
lowerback -1.07943 0.78594 1.38299
upperback -3.22393 1.03971 2.41309
thorax -2.72501 0.488633 1.69228
lowerneck -10.4735 -6.50289 -6.77442
upperneck 17.4224 -9.58241 8.17381
head 7.81838 -4.407 2.80595
rclavicle -8.44835e-015 1.19271e-014
rhumerus 31.0319 3.60752 -74.456
rradius 74.123
rwrist 1.55899
rhand -35.4114 -42.3594
rfingers 7.12502
rthumb -8.54178 -432.167
lclavicle -8.44835e-015 1.19271e-014
lhumerus 18.1836 29.6614 78.4675
lradius 70.01
lwrist 20.7921
lhand -35.306 45.3528
lfingers 7.12502
lthumb -8.44004 75.1642
rfemur -25.2105 -5.68017 19.2833
rtibia 67.2416
rfoot -0.211618 -15.6276
rtoes 8.86695
lfemur -12.3845 -3.34221 -23.0239
ltibia 22.4926
lfoot -10.5975 2.61472
ltoes 0.486685
241
root -3.52458 17.9343 4.80457 172.924 -87.8731 -169.277
lowerback -1.1094 0.744207 1.35423
upperback -3.20079 0.982754 2.46519
thorax -2.68461 0.461427 1.76323
lowerneck -10.8064 -6.04218 -6.36887
upperneck 17.6308 -8.97195 7.97538
head 7.86816 -4.09545 2.73589
rclavicle 5.1684e-015 -3.33958e-014
rhumerus 31.2021 7.44317 -71.406
rradius 75.0547
rwrist 1.74663
rhand -34.3045 -39.8005
rfingers 7.12502
rthumb -7.4735 -429.649
lclavicle 5.1684e-015 -3.33958e-014
lhumerus 16.1542 25.5645 75.5032
lradius 69.3064
lwrist 18.9418
lhand -34.1081 44.23
lfingers 7.12502
lthumb -7.28392 74.0847
rfemur -26.1804 -5.48471 19.1473
rtibia 66.5037
rfoot -1.29284 -15.5361
rtoes 8.19517
lfemur -11.5955 -3.33742 -23.2024
ltibia 21.9444
lfoot -10.7726 2.76013
ltoes 0.344698
242
root -3.66105 17.9473 4.80866 175.895 -87.7614 -172.22
lowerback -1.10904 0.697969 1.32936
upperback -3.17298 0.920842 2.5164
thorax -2.65612 0.431698 1.83078
lowerneck -11.1619 -5.5667 -5.93196
upperneck 17.8539 -8.34864 7.77128
head 7.92845 -3.77572 2.65982
rclavicle -5.66536e-015 2.70347e-014
rhumerus 31.6902 11.2566 -68.1386
rradius 75.9743
rwrist 2.05392
rhand -33.208 -37.1623
rfingers 7.12502
rthumb -6.41497 -427.045
lclavicle -5.66536e-015 2.70347e-014
lhumerus 14.3541 21.1247 72.6865
lradius 68.84
lwrist 17.5675
lhand -32.777 42.55
lfingers 7.12502
lthumb -5.9989 72.4451
rfemur -27.0932 -5.33216 19.0002
rtibia 65.6223
rfoot -2.29537 -15.49
rtoes 7.5314
lfemur -10.8091 -3.33853 -23.3858
ltibia 21.4155
lfoot -10.9511 2.89584
ltoes 0.181376
243
root -3.79636 17.9583 4.81299 178.596 -87.669 -174.897
lowerback -1.08035 0.648147 1.29959
upperback -3.14982 0.85517 2.56526
thorax -2.64816 0.400188 1.8984
lowerneck -11.513 -5.08594 -5.47617
upperneck 18.0842 -7.72759 7.57409
head 7.99462 -3.45567 2.58304
rclavicle 6.06293e-015 -1.11319e-014
rhumerus 32.4819 14.9728 -64.6543
rradius 76.8765
rwrist 2.60939
rhand -32.1559 -34.3398
rfingers 7.12502
rthumb -5.39921 -424.251
lclavicle 6.06293e-015 -1.11319e-014
lhumerus 12.7948 16.3805 70.0283
lradius 68.5508
lwrist 16.3068
lhand -31.4405 40.4811
lfingers 7.12502
lthumb -4.70849 70.4088
rfemur -27.9554 -5.22926 18.8416
rtibia 64.6009
rfoot -3.20431 -15.493
rtoes 6.81638
lfemur -10.04 -3.34638 -23.5757
ltibia 20.9117
lfoot -11.1286 3.01388
ltoes 0.0336847
244
root -3.93054 17.9672 4.81727 181.167 -87.6049 -177.441
lowerback -1.032 0.596464 1.25985
upperback -3.13215 0.78773 2.61108
thorax -2.6568 0.368025 1.96837
lowerneck -11.8613 -4.61171 -5.01639
upperneck 18.3163 -7.12409 7.39467
head 8.06735 -3.14245 2.50997
rclavicle -4.17448e-015 -4.77083e-014
rhumerus 33.5676 18.5069 -60.9589
rradius 77.7804
rwrist 3.50969
rhand -30.9891 -31.2228
rfingers 7.12502
rthumb -4.27259 -421.16
lclavicle -4.17448e-015 -4.77083e-014
lhumerus 11.4913 11.3611 67.5283
lradius 68.3864
lwrist 14.8196
lhand -30.2179 38.202
lfingers 7.12502
lthumb -3.52785 68.1525
rfemur -28.7733 -5.18279 18.674
rtibia 63.4465
rfoot -3.99567 -15.5615
rtoes 6.21014
lfemur -9.30227 -3.36379 -23.7726
ltibia 20.4414
lfoot -11.3086 3.11178
ltoes -0.114704
245
root -4.06365 17.9739 4.82117 183.559 -87.5723 -179.792
lowerback -0.976818 0.546997 1.21512
upperback -3.12545 0.723536 2.65328
thorax -2.68052 0.337529 2.03742
lowerneck -12.1835 -4.1536 -4.5669
upperneck 18.5381 -6.55209 7.2488
head 8.13999 -2.84293 2.44718
rclavicle 2.68359e-015 -5.56597e-014
rhumerus 34.9117 21.7961 -57.0713
rradius 78.6669
rwrist 4.9265
rhand -29.7855 -27.8008
rfingers 7.12502
rthumb -3.11029 -417.758
lclavicle 2.68359e-015 -5.56597e-014
lhumerus 10.4492 6.10891 65.167
lradius 68.3173
lwrist 12.8657
lhand -29.1802 35.8776
lfingers 7.12502
lthumb -2.52574 65.8424
rfemur -29.5534 -5.18587 18.5095
rtibia 62.1636
rfoot -4.68132 -15.6932
rtoes 5.70915
lfemur -8.60787 -3.3929 -23.9645
ltibia 20.0078
lfoot -11.492 3.1875
ltoes -0.269699
246
root -4.19571 17.9788 4.82445 185.847 -87.5757 -182.016
lowerback -0.9278 0.502132 1.16678
upperback -3.12824 0.665309 2.69093
thorax -2.71054 0.310025 2.1039
lowerneck -12.4921 -3.72067 -4.13613
upperneck 18.751 -6.02219 7.13897
head 8.2157 -2.5619 2.39554
rclavicle -5.71506e-015 -5.56597e-015
rhumerus 36.4936 24.7923 -53.0041
rradius 79.5321
rwrist 6.95462
rhand -28.6376 -24.1375
rfingers 7.12502
rthumb -2.0017 -414.108
lclavicle -5.71506e-015 -5.56597e-015
lhumerus 9.68589 0.665503 62.9167
lradius 68.3285
lwrist 10.3329
lhand -28.4695 33.6322
lfingers 7.12502
lthumb -1.83931 63.604
rfemur -30.303 -5.23488 18.3536
rtibia 60.7562
rfoot -5.26354 -15.8792
rtoes 5.34035
lfemur -7.97146 -3.43704 -24.1477
ltibia 19.6183
lfoot -11.6832 3.24527
ltoes -0.463634
247
root -4.32693 17.982 4.82697 188.024 -87.6149 -184.098
lowerback -0.894525 0.463514 1.11962
upperback -3.14889 0.614982 2.72307
thorax -2.75012 0.286277 2.16414
lowerneck -12.759 -3.31555 -3.72726
upperneck 18.9496 -5.5387 7.06878
head 8.28703 -2.30208 2.35669
rclavicle -2.68359e-015 3.18055e-014
rhumerus 38.2664 27.4879 -48.7787
rradius 80.3664
rwrist 9.66741
rhand -27.7859 -20.3933
rfingers 7.12502
rthumb -1.17914 -410.37
lclavicle -2.68359e-015 3.18055e-014
lhumerus 9.18961 -4.92413 60.7346
lradius 68.4318
lwrist 7.21609
lhand -28.1175 31.5765
lfingers 7.12502
lthumb -1.49935 61.5509
rfemur -31.0229 -5.31793 18.2135
rtibia 59.2241
rfoot -5.76193 -16.1033
rtoes 5.10578
lfemur -7.3959 -3.49478 -24.3146
ltibia 19.2719
lfoot -11.8941 3.27954
ltoes -0.717283
248
root -4.45768 17.9839 4.82869 190.038 -87.6893 -185.988
lowerback -0.885608 0.433023 1.07948
upperback -3.18185 0.574769 2.75099
thorax -2.78878 0.267267 2.21617
lowerneck -12.9978 -2.94237 -3.34847
upperneck 19.136 -5.10644 7.0458
head 8.35711 -2.06504 2.33373
rclavicle -4.77083e-015 -9.54166e-015
rhumerus 40.2119 29.8699 -44.4044
rradius 81.1588
rwrist 13.0327
rhand -27.5114 -16.846
rfingers 7.12502
rthumb -0.914043 -406.824
lclavicle -4.77083e-015 -9.54166e-015
lhumerus 8.97101 -10.6047 58.5757
lradius 68.6517
lwrist 3.59994
lhand -28.108 29.8049
lfingers 7.12502
lthumb -1.49025 59.7795
rfemur -31.709 -5.42817 18.0963
rtibia 57.5672
rfoot -6.19386 -16.3321
rtoes 4.93378
lfemur -6.87969 -3.56883 -24.4585
ltibia 18.9675
lfoot -12.125 3.29508
ltoes -1.01933
249
root -4.58823 17.9849 4.8296 191.859 -87.7955 -187.656
lowerback -0.900079 0.4124 1.0512
upperback -3.23025 0.547069 2.77189
thorax -2.83033 0.254016 2.25429
lowerneck -13.1999 -2.60345 -2.98491
upperneck 19.3147 -4.72953 7.05717
head 8.42449 -1.85305 2.3194
rclavicle 8.15017e-015 -6.36111e-015
rhumerus 42.2788 31.9404 -39.9313
rradius 81.8911
rwrist 16.969
rhand -28.0364 -13.6355
rfingers 7.12502
rthumb -1.42103 -403.611
lclavicle 8.15017e-015 -6.36111e-015
lhumerus 9.03965 -16.3253 56.3791
lradius 69.0043
lwrist -0.416951
lhand -28.3503 28.2809
lfingers 7.12502
lthumb -1.72422 58.2536
rfemur -32.3523 -5.55477 18.0056
rtibia 55.7819
rfoot -6.56676 -16.5354
rtoes 4.81313
lfemur -6.41482 -3.65781 -24.5753
ltibia 18.6995
lfoot -12.372 3.29439
ltoes -1.3451
250
root -4.7189 17.9852 4.82978 193.501 -87.9312 -189.124
lowerback -0.933154 0.398897 1.03418
upperback -3.28921 0.528349 2.78924
thorax -2.87243 0.244824 2.28243
lowerneck -13.388 -2.29847 -2.65267
upperneck 19.4976 -4.40593 7.11134
head 8.49713 -1.66463 2.31934
rclavicle -5.96354e-016 2.8625e-014
rhumerus 44.4363 33.6982 -35.4095
rradius 82.5749
rwrist 21.2107
rhand -29.3118 -11.0806
rfingers 7.12502
rthumb -2.65279 -401.044
lclavicle -5.96354e-016 2.8625e-014
lhumerus 9.40321 -22.0314 54.0845
lradius 69.5116
lwrist -4.77744
lhand -28.7765 26.9914
lfingers 7.12502
lthumb -2.13583 56.9604
rfemur -32.9422 -5.69059 17.9396
rtibia 53.868
rfoot -6.87346 -16.7018
rtoes 4.83528
lfemur -5.98887 -3.76045 -24.6658
ltibia 18.4615
lfoot -12.6353 3.28397
ltoes -1.69575
251
root -4.84989 17.9848 4.8292 195.245 -88.0943 -190.682
lowerback -0.982545 0.388537 1.0194
upperback -3.35462 0.513315 2.80053
thorax -2.91203 0.237304 2.3031
lowerneck -13.5602 -2.02671 -2.35038
upperneck 19.6839 -4.1337 7.20356
head 8.57359 -1.4992 2.33194
rclavicle -4.12478e-015 1.03368e-014
rhumerus 46.6087 35.1401 -30.9594
rradius 83.2541
rwrist 25.2977
rhand -31.0826 -9.18981
rfingers 7.12502
rthumb -4.36289 -399.125
lclavicle -4.12478e-015 1.03368e-014
lhumerus 10.0991 -27.6624 51.6058
lradius 70.1848
lwrist -9.36372
lhand -29.2364 25.734
lfingers 7.12502
lthumb -2.58001 55.6981
rfemur -33.4659 -5.83399 17.8864
rtibia 51.8162
rfoot -7.10262 -16.8206
rtoes 4.92084
lfemur -5.5873 -3.87458 -24.7409
ltibia 18.2429
lfoot -12.8965 3.25696
ltoes -2.02882
